<?xml version="1.0" encoding="utf-8"?>
<!-- Generator: Adobe Illustrator 23.0.2, SVG Export Plug-In . SVG Version: 6.00 Build 0)  -->
<svg version="1.1" id="Ebene_1" xmlns="http://www.w3.org/2000/svg" xmlns:xlink="http://www.w3.org/1999/xlink" x="0px" y="0px"
	 viewBox="0 0 879.7 306.7" style="enable-background:new 0 0 879.7 306.7;" xml:space="preserve">
<style type="text/css">
	.st0{fill:#878787;}
	.st1{fill:#EF7D00;}
</style>
<path d="M310.1,151.9h0.3c0.5,0,1-0.2,1.4-0.6c0.4-0.4,0.6-1,0.6-1.8v-16.8c0-0.9-0.2-1.6-0.7-1.9c-0.5-0.4-1-0.6-1.7-0.6V130h7.1
	v0.3c-0.6,0-1.2,0.2-1.7,0.6s-0.7,1-0.7,1.9v16.2c0,1,0.2,1.6,0.7,2s1.3,0.6,2.4,0.6h1.9c0.8,0,1.5-0.1,2-0.3
	c0.5-0.2,0.9-0.5,1.2-0.9c0.3-0.4,0.6-1,0.9-1.8h0.3l-0.8,3.7h-13.2V151.9z"/>
<path d="M328.7,130.2V130h13.2v3.5h-0.2c0-1.9-1.2-2.8-3.7-2.8h-4.6v10.1h4.1c0.8,0,1.5-0.1,2.2-0.4c0.6-0.3,1-0.9,1.1-1.8h0.2v5
	h-0.2c-0.1-0.6-0.3-1-0.5-1.3c-0.3-0.3-0.5-0.5-0.7-0.6c-0.2-0.1-0.5-0.2-0.7-0.2c-0.4-0.1-0.7-0.1-1.1-0.1h-4.3v7.9
	c0,0.6,0.1,1.1,0.3,1.5c0.2,0.4,0.8,0.6,1.6,0.6h3.3c0.8,0,1.4-0.1,2-0.3c0.5-0.2,0.9-0.6,1.2-1c0.3-0.4,0.5-0.9,0.7-1.5h0.2
	l-0.8,3.5h-13.2v-0.2h0.3c0.5,0,0.9-0.2,1.4-0.6c0.5-0.4,0.7-1,0.7-1.9v-16.7c0-0.7-0.2-1.3-0.5-1.8s-0.8-0.8-1.6-0.8H328.7z"/>
<path d="M355.7,130v0.3c-0.7,0-1.2,0.2-1.7,0.6s-0.7,1-0.7,1.9v16.9c0,0.9,0.2,1.5,0.7,1.9c0.5,0.4,1,0.6,1.6,0.6v0.2h-7v-0.2
	c0.6,0,1.2-0.2,1.7-0.6c0.5-0.4,0.7-1,0.7-1.9v-16.9c0-0.9-0.2-1.6-0.7-1.9c-0.5-0.3-1-0.5-1.7-0.5V130H355.7z"/>
<path d="M370.3,152.2H362v-0.2h0.3c0.6,0,1-0.2,1.5-0.6c0.4-0.4,0.6-1,0.6-1.8v-16.8c0-0.8-0.2-1.4-0.6-1.8
	c-0.4-0.4-0.9-0.7-1.5-0.7H362V130h7.3c1,0,1.8,0.1,2.6,0.4c0.8,0.3,1.5,0.7,2,1.1c0.6,0.5,1,1,1.3,1.7c0.3,0.6,0.5,1.3,0.5,2
	c0,1.3-0.4,2.4-1.3,3.3c-0.9,0.8-2,1.4-3.5,1.8v0.1c0.7,0.1,1.3,0.2,1.9,0.3s1.2,0.3,1.7,0.6c0.5,0.3,1,0.6,1.4,1
	c0.4,0.4,0.7,0.8,1,1.2c0.3,0.4,0.5,0.9,0.6,1.4s0.2,1,0.2,1.6c0,1.2-0.3,2.2-0.9,3c-0.6,0.8-1.3,1.5-2,1.9
	C373.7,151.9,372.2,152.2,370.3,152.2z M366.7,140.2h1.4c1.2,0,2-0.1,2.5-0.4c0.3-0.2,0.7-0.4,1-0.7c0.3-0.3,0.7-0.7,1-1.3
	c0.3-0.6,0.5-1.3,0.5-2.2c0-0.7-0.1-1.3-0.3-1.9c-0.2-0.6-0.5-1.1-0.9-1.6c-0.4-0.5-0.9-0.8-1.4-1.1c-0.6-0.3-1.2-0.4-1.8-0.4
	c-0.6,0-1.2,0.1-2,0.3V140.2z M369,140.8h-2.3v8c0,0.5,0.1,1,0.2,1.3c0.1,0.4,0.4,0.7,0.9,0.9s1.2,0.4,2.2,0.4c2,0,3.5-0.7,4.4-2
	c0.6-0.9,0.9-2,0.9-3.2c0-0.8-0.1-1.6-0.4-2.3c-0.3-0.7-0.7-1.3-1.2-1.7c-0.5-0.5-1.2-0.8-2-1.1C370.8,141,369.9,140.8,369,140.8z"
	/>
<path d="M405.9,130v0.3c-0.6,0.1-1,0.2-1.3,0.3c-0.3,0.1-0.6,0.4-0.8,0.9c-0.2,0.4-0.3,1-0.3,1.8v19.5h-0.2l-17.1-19v13.7
	c0,1.1,0,2,0.1,2.5c0.1,0.6,0.2,1,0.4,1.2c0.4,0.5,1,0.8,1.9,0.8v0.2h-5.6v-0.2c0.6,0,1.1-0.2,1.5-0.4c0.3-0.2,0.6-0.7,0.7-1.3
	c0.1-0.6,0.2-1.6,0.2-2.8v-14.5l-0.7-0.8c-0.7-0.7-1.2-1.2-1.6-1.4c-0.4-0.2-0.9-0.3-1.5-0.4V130h4.2l16.8,18.8v-14.4
	c0-1.1,0-1.9-0.1-2.4c-0.1-0.5-0.3-1-0.7-1.3c-0.4-0.3-0.9-0.5-1.7-0.5V130H405.9z"/>
<path d="M419.3,130v0.3c-0.7,0-1.2,0.2-1.7,0.6c-0.5,0.4-0.7,1-0.7,1.9v16.9c0,0.9,0.2,1.5,0.7,1.9s1,0.6,1.6,0.6v0.2h-7v-0.2
	c0.6,0,1.2-0.2,1.7-0.6c0.5-0.4,0.7-1,0.7-1.9v-16.9c0-0.9-0.2-1.6-0.7-1.9c-0.5-0.3-1-0.5-1.7-0.5V130H419.3z"/>
<path d="M441.3,130.8h-10.6c-0.9,0-1.6,0.1-2.2,0.3c-0.6,0.2-1,0.5-1.3,1c-0.3,0.5-0.6,1.1-0.7,1.9h-0.2V130h18.2v0.4l-15.4,21h10.7
	c1.2,0,2.1-0.1,2.8-0.4s1.2-0.6,1.4-0.9c0.3-0.4,0.6-0.9,0.9-1.6h0.2l-1,3.7H426v-0.5L441.3,130.8z"/>
<path d="M450.4,140.5h8v1.2h-8V140.5z"/>
<path d="M470.5,130v0.3c-0.7,0-1.2,0.2-1.7,0.6c-0.5,0.4-0.7,1-0.7,1.9v16.9c0,0.9,0.2,1.5,0.7,1.9s1,0.6,1.6,0.6v0.2h-7v-0.2
	c0.6,0,1.2-0.2,1.7-0.6c0.5-0.4,0.7-1,0.7-1.9v-16.9c0-0.9-0.2-1.6-0.7-1.9c-0.5-0.3-1-0.5-1.7-0.5V130H470.5z"/>
<path d="M499,130v0.3c-0.6,0.1-1,0.2-1.3,0.3c-0.3,0.1-0.6,0.4-0.8,0.9c-0.2,0.4-0.3,1-0.3,1.8v19.5h-0.2l-17.1-19v13.7
	c0,1.1,0,2,0.1,2.5c0.1,0.6,0.2,1,0.4,1.2c0.4,0.5,1,0.8,1.9,0.8v0.2h-5.6v-0.2c0.6,0,1.1-0.2,1.5-0.4c0.3-0.2,0.6-0.7,0.7-1.3
	c0.1-0.6,0.2-1.6,0.2-2.8v-14.5l-0.7-0.8c-0.7-0.7-1.2-1.2-1.6-1.4c-0.4-0.2-0.9-0.3-1.5-0.4V130h4.2l16.8,18.8v-14.4
	c0-1.1,0-1.9-0.1-2.4c-0.1-0.5-0.3-1-0.7-1.3c-0.4-0.3-0.9-0.5-1.7-0.5V130H499z"/>
<path d="M516.6,134.2h-0.2c-0.1-1.1-0.6-2-1.4-2.8c-0.8-0.8-1.9-1.2-3.2-1.2c-0.9,0-1.6,0.2-2.3,0.6s-1.2,1-1.5,1.6
	s-0.5,1.5-0.5,2.4c0,0.7,0.1,1.3,0.3,1.8c0.2,0.5,0.5,1,1,1.4c0.4,0.4,0.9,0.8,1.5,1.2c0.6,0.4,1.3,0.8,2.3,1.4
	c1.6,0.9,2.9,1.8,3.8,2.7c0.9,0.9,1.4,2.1,1.4,3.7c0,0.9-0.2,1.9-0.7,2.7c-0.5,0.9-1.2,1.6-2.2,2.2c-1,0.6-2.2,0.8-3.7,0.8
	c-0.9,0-1.7-0.1-2.4-0.3c-0.7-0.2-1.4-0.5-2.1-0.8c-0.3-0.1-0.5-0.2-0.6-0.2c-0.2,0-0.4,0.1-0.4,0.2c-0.1,0.2-0.2,0.5-0.3,1H505
	v-5.6h0.3c0.4,1.6,1.1,2.9,2.1,3.7c1,0.8,2.3,1.3,3.8,1.3c1.1,0,2-0.2,2.7-0.6c0.7-0.4,1.2-0.9,1.4-1.5c0.3-0.6,0.4-1.2,0.4-1.8
	c0-1.2-0.4-2.3-1.1-3.1c-0.8-0.8-1.9-1.6-3.5-2.4c-1.1-0.6-1.9-1-2.4-1.4c-0.5-0.3-1-0.7-1.6-1.3c-0.5-0.5-0.9-1.1-1.3-1.8
	s-0.5-1.5-0.5-2.4c0-1,0.3-2,0.8-3s1.3-1.7,2.4-2.3c1-0.6,2.2-0.9,3.5-0.9c1,0,2,0.2,3,0.5c0.2,0.1,0.4,0.1,0.6,0.1
	c0.3,0,0.6-0.2,0.7-0.7h0.2V134.2z"/>
<path d="M541.7,134.3h-0.2c-0.1-1.4-0.5-2.4-1.3-2.8c-0.7-0.4-1.6-0.6-2.7-0.6h-4.4v18.7c0,1.6,0.8,2.4,2.4,2.4v0.2h-7.1v-0.2
	c0.7,0,1.2-0.2,1.7-0.6c0.5-0.4,0.7-1,0.7-1.9v-18.7h-4.4c-1.1,0-2,0.2-2.7,0.6c-0.7,0.4-1.2,1.4-1.3,2.8h-0.2v-5.4h0.2
	c0.2,0.3,0.3,0.4,0.4,0.6s0.3,0.2,0.5,0.3c0.2,0.1,0.4,0.1,0.7,0.2c0.3,0,0.6,0.1,0.9,0.1h14.4c1,0,1.7-0.4,2.2-1.1h0.2V134.3z"/>
<path d="M554.6,130v0.3c-0.7,0-1.2,0.2-1.7,0.6c-0.5,0.4-0.7,1-0.7,1.9v16.9c0,0.9,0.2,1.5,0.7,1.9s1,0.6,1.6,0.6v0.2h-7v-0.2
	c0.6,0,1.2-0.2,1.7-0.6c0.5-0.4,0.7-1,0.7-1.9v-16.9c0-0.9-0.2-1.6-0.7-1.9c-0.5-0.3-1-0.5-1.7-0.5V130H554.6z"/>
<path d="M580,134.3h-0.2c-0.1-1.4-0.5-2.4-1.3-2.8c-0.7-0.4-1.6-0.6-2.7-0.6h-4.4v18.7c0,1.6,0.8,2.4,2.4,2.4v0.2h-7.1v-0.2
	c0.7,0,1.2-0.2,1.7-0.6c0.5-0.4,0.7-1,0.7-1.9v-18.7h-4.4c-1.1,0-2,0.2-2.7,0.6c-0.7,0.4-1.2,1.4-1.3,2.8h-0.2v-5.4h0.2
	c0.2,0.3,0.3,0.4,0.4,0.6s0.3,0.2,0.5,0.3c0.2,0.1,0.4,0.1,0.7,0.2c0.3,0,0.6,0.1,0.9,0.1h14.4c1,0,1.7-0.4,2.2-1.1h0.2V134.3z"/>
<path d="M605.6,152.2h-4.7v-3.7l-0.1-0.1c-0.6,1.5-1.6,2.6-2.9,3.3c-1.3,0.7-2.6,1-4,1c-1.6,0-3-0.4-4.3-1.1
	c-1.3-0.8-2.2-1.7-2.8-2.8c-0.4-0.8-0.7-1.6-0.8-2.5c-0.1-0.8-0.2-1.7-0.2-2.6v-11.1c0-0.7-0.1-1.2-0.4-1.7
	c-0.3-0.5-0.9-0.7-1.9-0.8V130h7v0.3c-1,0.1-1.7,0.4-2,0.9s-0.4,1-0.4,1.6v10.9c0,2.2,0.2,3.8,0.7,4.9c0.5,1.1,1.2,2,2.2,2.6
	c1,0.6,2.1,1,3.3,1c0.5,0,1.1-0.1,1.8-0.3s1.4-0.5,2-0.9c1.8-1.3,2.8-3.3,2.8-6.1v-12.1c0-0.6-0.1-1.2-0.4-1.6s-0.9-0.8-2-0.8V130
	h7.1v0.3c-1,0.1-1.7,0.3-2,0.9c-0.3,0.5-0.4,1.1-0.4,1.6v16.8c0,0.6,0.1,1,0.3,1.4c0.2,0.3,0.5,0.6,0.8,0.7c0.3,0.1,0.8,0.3,1.3,0.3
	V152.2z"/>
<path d="M628.8,134.3h-0.2c-0.1-1.4-0.5-2.4-1.3-2.8c-0.7-0.4-1.6-0.6-2.7-0.6h-4.4v18.7c0,1.6,0.8,2.4,2.4,2.4v0.2h-7.1v-0.2
	c0.7,0,1.2-0.2,1.7-0.6c0.5-0.4,0.7-1,0.7-1.9v-18.7h-4.4c-1.1,0-2,0.2-2.7,0.6c-0.7,0.4-1.2,1.4-1.3,2.8h-0.2v-5.4h0.2
	c0.2,0.3,0.3,0.4,0.4,0.6c0.1,0.1,0.3,0.2,0.5,0.3c0.2,0.1,0.4,0.1,0.7,0.2c0.3,0,0.6,0.1,0.9,0.1h14.4c1,0,1.7-0.4,2.2-1.1h0.2
	V134.3z"/>
<path d="M642.7,130.2V130h13.3v3.4h-0.2c-0.1-0.7-0.3-1.3-0.8-1.9c-0.4-0.5-1.2-0.8-2.3-0.8h-5.3v10.1h5c0.9,0,1.6-0.2,1.9-0.6
	s0.6-0.9,0.7-1.6h0.2v5H655c-0.1-0.6-0.3-1.2-0.6-1.6c-0.4-0.4-1-0.6-2-0.6h-5v8.1c0,0.7,0.2,1.3,0.6,1.8c0.4,0.4,0.9,0.7,1.5,0.7
	h0.3v0.2h-7.2v-0.2h0.3c0.6,0,1.1-0.2,1.5-0.7c0.4-0.5,0.6-1,0.6-1.8v-16.8c0-1-0.2-1.6-0.6-2c-0.4-0.3-0.9-0.5-1.4-0.5H642.7z"/>
<path d="M683.6,152.2h-4.7v-3.7l-0.1-0.1c-0.6,1.5-1.6,2.6-2.9,3.3c-1.3,0.7-2.6,1-4,1c-1.6,0-3-0.4-4.3-1.1
	c-1.3-0.8-2.2-1.7-2.8-2.8c-0.4-0.8-0.7-1.6-0.8-2.5c-0.1-0.8-0.2-1.7-0.2-2.6v-11.1c0-0.7-0.1-1.2-0.4-1.7
	c-0.3-0.5-0.9-0.7-1.9-0.8V130h7v0.3c-1,0.1-1.7,0.4-2,0.9s-0.4,1-0.4,1.6v10.9c0,2.2,0.2,3.8,0.7,4.9c0.5,1.1,1.2,2,2.2,2.6
	c1,0.6,2.1,1,3.3,1c0.5,0,1.1-0.1,1.8-0.3c0.7-0.2,1.4-0.5,2-0.9c1.8-1.3,2.8-3.3,2.8-6.1v-12.1c0-0.6-0.1-1.2-0.4-1.6
	s-0.9-0.8-2-0.8V130h7.1v0.3c-1,0.1-1.7,0.3-2,0.9c-0.3,0.5-0.4,1.1-0.4,1.6v16.8c0,0.6,0.1,1,0.3,1.4c0.2,0.3,0.5,0.6,0.8,0.7
	c0.3,0.1,0.8,0.3,1.3,0.3V152.2z M669.5,125.1c0.4,0,0.7,0.1,1,0.4c0.3,0.3,0.4,0.6,0.4,1c0,0.4-0.1,0.7-0.4,1
	c-0.3,0.3-0.6,0.4-1,0.4c-0.4,0-0.7-0.1-1-0.4c-0.3-0.3-0.4-0.6-0.4-1c0-0.4,0.1-0.7,0.4-1C668.8,125.2,669.2,125.1,669.5,125.1z
	 M675.6,125.1c0.4,0,0.7,0.1,1,0.4c0.3,0.3,0.4,0.6,0.4,1c0,0.4-0.1,0.7-0.4,1c-0.3,0.3-0.6,0.4-1,0.4c-0.4,0-0.7-0.1-1-0.4
	c-0.3-0.3-0.4-0.6-0.4-1c0-0.4,0.1-0.7,0.4-1C674.9,125.2,675.3,125.1,675.6,125.1z"/>
<path d="M689.1,130.3h-0.3V130h7.7c1.2,0,2.3,0.2,3.1,0.6c0.9,0.4,1.5,0.9,2,1.5c0.5,0.6,0.8,1.2,1,1.9c0.2,0.7,0.3,1.3,0.3,1.9
	c0,0.8-0.2,1.6-0.5,2.3c-0.3,0.7-0.9,1.4-1.6,1.9c-0.7,0.5-1.6,0.9-2.6,1.1v0.1c1.3,0.6,2.6,1.9,3.7,3.8l2,3.4
	c0.9,1.5,1.6,2.5,2.2,2.9c0.5,0.4,1.1,0.6,1.6,0.7v0.2h-4c-0.2-0.2-0.3-0.4-0.5-0.6s-0.3-0.4-0.5-0.7c-0.1-0.2-0.2-0.4-0.4-0.7
	c-0.2-0.3-0.3-0.5-0.4-0.5l-2.7-4.4c-0.5-0.9-1.1-1.6-1.6-2.2c-0.6-0.6-1.1-1-1.6-1.2c-0.5-0.2-0.9-0.4-1.3-0.5
	c-0.4-0.1-0.8-0.1-1.4-0.1v8.1c0,1.6,0.8,2.4,2.4,2.4v0.2h-7.1v-0.2c0.4,0,0.8-0.1,1.2-0.2c0.3-0.1,0.6-0.4,0.9-0.8
	c0.2-0.4,0.3-0.8,0.3-1.4v-16.8c0-0.9-0.2-1.5-0.6-1.9S689.6,130.3,689.1,130.3z M693.5,140.8h1.3c1.3,0,2.4-0.2,3.3-0.6
	c0.8-0.4,1.5-0.9,1.8-1.6c0.4-0.7,0.6-1.6,0.6-2.6c0-0.9-0.2-1.7-0.5-2.5c-0.3-0.8-0.9-1.5-1.7-2.1c-0.8-0.6-1.9-0.8-3.3-0.8
	c-0.6,0-1,0-1.4,0.1V140.8z"/>
<path class="st0" d="M110.2,129v0.8c-2.1,0-3.8,0.6-5.3,1.8c-1.4,1.2-2.2,3.3-2.2,6.1v55.7c0,2.8,0.8,4.9,2.3,6.2
	c1.5,1.3,3.3,1.9,5.1,1.9v0.8h-22v-0.8c2,0,3.7-0.6,5.2-1.9c1.5-1.2,2.2-3.3,2.2-6.2v-55.7c0-3.1-0.7-5.1-2.2-6.3
	c-1.5-1.1-3.2-1.7-5.2-1.7V129H110.2z"/>
<path class="st0" d="M117.3,129.9V129H144c3.7,0,7.2,0.3,10.3,1c3.2,0.7,6,1.6,8.5,2.7c2.5,1.1,4.7,2.4,6.5,3.7
	c1.8,1.3,3.4,2.7,4.6,4.1c2.2,2.3,4.1,4.9,5.6,7.7c1.5,2.8,2.7,5.8,3.5,9c0.8,3.2,1.2,6.4,1.2,9.8c0,3.4-0.4,6.5-1.1,9.6
	c-0.8,3-1.8,5.8-3.3,8.4c-1.4,2.6-3.1,4.9-5.1,7c-2,2.1-4.2,4-6.9,5.7c-2.2,1.4-4.8,2.5-7.7,3.4c-2.9,0.9-6.8,1.3-11.7,1.3h-31.1
	v-0.8h0.9c2.2,0,3.8-0.9,4.9-2.6c1.1-1.7,1.6-3.6,1.6-5.5v-55.4c0-1.9-0.3-3.4-0.9-4.7c-0.6-1.3-1.4-2.2-2.3-2.7
	c-1-0.6-2.1-0.8-3.3-0.8H117.3z M131.8,132.5v58.2c0,2.9,0.4,5,1.3,6.3c0.9,1.3,2.2,2.2,4,2.6c1.8,0.4,4.5,0.6,8,0.6
	c5,0,9.3-0.5,12.7-1.6c3.5-1,6.8-3.4,10-7c2.4-2.7,4.3-6,5.7-9.9c1.4-3.9,2.2-8.6,2.2-14.1c0-4.4-0.6-8.7-1.7-12.9
	c-1.2-4.3-2.9-8.1-5.3-11.4c-2.7-3.8-6.1-6.7-10.3-8.8c-4.2-2.1-9.2-3.2-15.2-3.2C140.3,131.3,136.4,131.7,131.8,132.5z"/>
<path class="st0" d="M226.2,143.1h-0.8c-0.4-3.6-1.9-6.7-4.4-9.3c-2.5-2.7-5.8-4-9.9-4c-2.7,0-5,0.7-7.1,2c-2.1,1.3-3.7,3.1-4.8,5.4
	c-1.1,2.3-1.7,4.9-1.7,7.9c0,2.3,0.3,4.3,1,6.1c0.7,1.8,1.7,3.3,3,4.7c1.3,1.4,2.9,2.6,4.7,3.8s4.2,2.7,7.3,4.5
	c5.1,3,9,5.9,11.9,8.8c2.8,2.9,4.2,7,4.2,12.1c0,3.1-0.8,6.1-2.3,9c-1.5,2.9-3.8,5.3-6.9,7.1c-3.1,1.9-6.9,2.8-11.5,2.8
	c-2.9,0-5.4-0.3-7.6-1c-2.2-0.6-4.4-1.6-6.7-2.7c-0.9-0.3-1.6-0.5-1.9-0.5c-0.7,0-1.1,0.2-1.3,0.7c-0.2,0.5-0.5,1.6-0.8,3.2h-0.8
	v-18.4h0.8c1.1,5.4,3.3,9.5,6.6,12.2c3.3,2.8,7.2,4.1,11.9,4.1c3.5,0,6.3-0.7,8.5-2.1c2.1-1.4,3.6-3.1,4.4-5.1c0.8-2,1.2-4,1.2-6
	c0-4.1-1.2-7.5-3.6-10.1c-2.4-2.6-6-5.3-10.8-8c-3.3-1.9-5.8-3.4-7.4-4.5c-1.6-1.1-3.2-2.4-4.9-4.1c-1.6-1.7-3-3.7-3.9-6
	c-1-2.3-1.5-5-1.5-7.9c0-3.5,0.9-6.8,2.6-9.9c1.7-3.2,4.2-5.7,7.4-7.6c3.2-1.9,6.8-2.9,10.8-2.9c3,0,6.2,0.5,9.4,1.6
	c0.5,0.3,1.2,0.4,2,0.4c1,0,1.7-0.7,2.1-2.2h0.8V143.1z"/>
<g>
	<path class="st1" d="M269.6,49c0,0,0,0.9,0.1,2.5c0,1.6,0.1,4.1,0.2,7.1c0.1,6.2,0.4,15,0.6,25.5c0.1,5.3,0.2,11,0.3,17
		c0.1,6,0.1,12.4,0.2,19c0,6.6,0.1,13.4,0.1,20.3c0,6.9,0,14,0.1,21c0,7,0,14.1-0.1,21c0,6.9-0.1,13.7-0.1,20.3
		c-0.1,13.2-0.3,25.5-0.5,36.1c-0.2,10.6-0.4,19.3-0.6,25.5c-0.1,3.1-0.2,5.5-0.2,7.1c-0.1,1.6-0.1,2.5-0.1,2.5s0-0.9-0.1-2.5
		c0-1.6-0.1-4.1-0.2-7.1c-0.1-6.2-0.4-15-0.6-25.5c-0.2-10.6-0.4-22.9-0.5-36.1c0-6.6-0.1-13.4-0.1-20.3c0-6.9,0-14-0.1-21
		c0-7,0-14.1,0.1-21c0-6.9,0.1-13.7,0.1-20.3c0.1-6.6,0.1-13,0.2-19c0.1-6,0.2-11.8,0.3-17c0.2-10.6,0.4-19.3,0.6-25.5
		c0.1-3.1,0.2-5.5,0.2-7.1C269.6,49.9,269.6,49,269.6,49z"/>
</g>
<path d="M308.8,169.8v-0.4H321c1.7,0,3.3,0.2,4.7,0.5c1.4,0.3,2.7,0.7,3.9,1.2c1.1,0.5,2.1,1.1,3,1.7c0.8,0.6,1.5,1.2,2.1,1.9
	c1,1,1.9,2.2,2.6,3.5c0.7,1.3,1.2,2.6,1.6,4.1c0.4,1.4,0.5,2.9,0.5,4.4c0,1.5-0.2,2.9-0.5,4.3c-0.3,1.4-0.8,2.6-1.5,3.8
	c-0.6,1.2-1.4,2.2-2.3,3.2c-0.9,0.9-1.9,1.8-3.1,2.6c-1,0.6-2.2,1.1-3.5,1.5s-3.1,0.6-5.4,0.6h-14.2v-0.4h0.4c1,0,1.7-0.4,2.2-1.2
	c0.5-0.8,0.7-1.6,0.7-2.5v-24.9c0-0.8-0.1-1.5-0.4-2.1c-0.3-0.6-0.6-1-1.1-1.2c-0.4-0.3-0.9-0.4-1.5-0.4H308.8z M315.5,171v26.2
	c0,1.3,0.2,2.2,0.6,2.8c0.4,0.6,1,1,1.8,1.2c0.8,0.2,2.1,0.3,3.7,0.3c2.3,0,4.2-0.2,5.8-0.7c1.6-0.5,3.1-1.5,4.6-3.2
	c1.1-1.2,2-2.7,2.6-4.4s1-3.9,1-6.3c0-2-0.3-3.9-0.8-5.8c-0.5-1.9-1.3-3.6-2.4-5.1c-1.2-1.7-2.8-3-4.7-4c-1.9-1-4.2-1.4-6.9-1.4
	C319.3,170.5,317.6,170.6,315.5,171z"/>
<path d="M345.5,169.8v-0.4h18.9v5.2h-0.3c0-2.8-1.8-4.2-5.3-4.2h-6.6v15h5.8c1.1,0,2.2-0.2,3.1-0.6c0.9-0.4,1.4-1.3,1.6-2.7h0.3v7.5
	h-0.3c-0.1-0.9-0.4-1.5-0.7-2c-0.4-0.5-0.7-0.8-1.1-0.9c-0.4-0.1-0.7-0.2-0.9-0.2c-0.5-0.1-1.1-0.1-1.6-0.1h-6.1v11.7
	c0,0.9,0.2,1.6,0.5,2.3c0.3,0.6,1.1,1,2.2,1h4.7c1.1,0,2.1-0.2,2.8-0.5c0.7-0.3,1.3-0.8,1.7-1.4c0.4-0.6,0.8-1.4,1.1-2.2h0.3
	l-1.1,5.2h-18.9v-0.4h0.4c0.7,0,1.3-0.3,2-0.9c0.6-0.6,1-1.5,1-2.8v-24.9c0-1-0.2-1.9-0.7-2.6c-0.4-0.7-1.2-1.1-2.3-1.1H345.5z"/>
<path d="M403.5,202.5h-6.7V197l-0.1-0.1c-0.9,2.2-2.3,3.9-4.1,4.9c-1.8,1-3.7,1.5-5.7,1.5c-2.3,0-4.3-0.6-6.1-1.7
	c-1.8-1.1-3.1-2.5-4-4.2c-0.6-1.2-1-2.4-1.1-3.6c-0.2-1.3-0.2-2.6-0.2-3.9v-16.4c0-1-0.2-1.8-0.6-2.5s-1.3-1.1-2.7-1.2v-0.4h10v0.4
	c-1.5,0.2-2.4,0.6-2.8,1.3c-0.4,0.7-0.6,1.5-0.6,2.4v16.2c0,3.3,0.3,5.7,1,7.3c0.7,1.7,1.7,3,3.1,3.9c1.4,0.9,2.9,1.4,4.7,1.4
	c0.7,0,1.6-0.1,2.6-0.4c1-0.3,1.9-0.7,2.8-1.3c2.6-1.9,3.9-4.9,3.9-9v-18.1c0-0.9-0.2-1.7-0.6-2.4c-0.4-0.7-1.3-1.1-2.8-1.3v-0.4
	h10.1v0.4c-1.5,0.1-2.4,0.5-2.8,1.3c-0.4,0.8-0.6,1.6-0.6,2.4v25c0,0.9,0.1,1.6,0.4,2.1c0.3,0.5,0.7,0.9,1.2,1.1
	c0.5,0.2,1.1,0.4,1.8,0.5V202.5z"/>
<path d="M437.7,175.9h-0.3c-0.2-2.2-0.8-3.5-1.8-4.2c-1-0.6-2.3-1-3.9-1h-6.3v27.8c0,2.3,1.1,3.6,3.4,3.6v0.4h-10.1v-0.4
	c0.9,0,1.7-0.3,2.4-0.9s1-1.5,1-2.8v-27.8h-6.3c-1.5,0-2.8,0.3-3.9,1c-1,0.6-1.6,2-1.8,4.2h-0.3v-8.1h0.3c0.2,0.4,0.4,0.7,0.6,0.8
	c0.2,0.2,0.4,0.3,0.7,0.5c0.3,0.1,0.6,0.2,1,0.3c0.4,0.1,0.8,0.1,1.3,0.1h20.5c1.4,0,2.4-0.5,3.2-1.6h0.3V175.9z"/>
<path d="M461.4,175.8H461c-0.2-1.6-0.9-3-2-4.2c-1.1-1.2-2.6-1.8-4.5-1.8c-1.2,0-2.3,0.3-3.3,0.9c-0.9,0.6-1.7,1.4-2.2,2.4
	c-0.5,1-0.8,2.2-0.8,3.5c0,1,0.2,1.9,0.5,2.7c0.3,0.8,0.8,1.5,1.4,2.1s1.3,1.2,2.1,1.7c0.8,0.5,1.9,1.2,3.3,2c2.3,1.3,4.1,2.7,5.4,4
	c1.3,1.3,1.9,3.1,1.9,5.4c0,1.4-0.3,2.8-1,4.1c-0.7,1.3-1.7,2.4-3.2,3.2c-1.4,0.8-3.2,1.3-5.2,1.3c-1.3,0-2.5-0.1-3.5-0.4
	c-1-0.3-2-0.7-3.1-1.2c-0.4-0.1-0.7-0.2-0.9-0.2c-0.3,0-0.5,0.1-0.6,0.3c-0.1,0.2-0.2,0.7-0.4,1.5h-0.4v-8.3h0.4
	c0.5,2.4,1.5,4.3,3,5.5c1.5,1.2,3.3,1.9,5.4,1.9c1.6,0,2.9-0.3,3.9-0.9c1-0.6,1.6-1.4,2-2.3s0.6-1.8,0.6-2.7c0-1.9-0.5-3.4-1.6-4.5
	c-1.1-1.2-2.7-2.4-4.9-3.6c-1.5-0.9-2.6-1.5-3.4-2c-0.7-0.5-1.5-1.1-2.2-1.9c-0.8-0.8-1.4-1.7-1.8-2.7c-0.4-1-0.7-2.2-0.7-3.6
	c0-1.6,0.4-3,1.2-4.5c0.8-1.4,1.9-2.6,3.4-3.4c1.4-0.9,3.1-1.3,4.9-1.3c1.4,0,2.8,0.2,4.3,0.7c0.2,0.1,0.5,0.2,0.9,0.2
	c0.5,0,0.8-0.3,1-1h0.3V175.8z"/>
<path d="M496.8,176.8h-0.4c-0.3-1.6-1-3-2.2-4.1c-1.2-1.1-2.5-1.9-4.1-2.5c-1.5-0.5-3-0.8-4.3-0.8c-1.8,0-3.5,0.4-5.1,1.2
	c-1.6,0.8-3,1.9-4.1,3.4c-1.2,1.5-2.1,3.2-2.7,5.2c-0.6,2-1,4.3-1,6.7c0,2.3,0.3,4.5,0.9,6.4c0.6,2,1.5,3.7,2.7,5.2
	c1.2,1.5,2.6,2.6,4.2,3.3c1.6,0.7,3.3,1.1,5.3,1.1c1.6,0,3.4-0.3,5.3-1c1.9-0.7,3.7-1.8,5.2-3.4v1.3c-1.9,1.5-3.7,2.7-5.2,3.4
	c-1.6,0.7-3.6,1.1-5.9,1.1c-2.5,0-4.8-0.5-6.8-1.4c-2.1-0.9-3.8-2.2-5.2-3.8c-1.4-1.6-2.5-3.4-3.2-5.5c-0.7-2-1.1-4.1-1.1-6.2
	c0-3.2,0.8-6.2,2.3-9c1.5-2.8,3.6-4.9,6.2-6.5c2.6-1.6,5.4-2.4,8.5-2.4c1.9,0,3.9,0.3,6,0.9l2.2,0.7c0.4,0.1,0.8,0.1,1.1,0.1
	c0.6,0,0.9-0.1,1.1-0.3c0.2-0.2,0.3-0.5,0.4-0.9h0.3L496.8,176.8z"/>
<path d="M527.7,184.5v-11.1c0-1.1-0.3-2-0.8-2.6c-0.6-0.7-1.4-1-2.6-1v-0.4h10.1v0.4c-1.2,0-2,0.3-2.6,1c-0.5,0.7-0.8,1.6-0.8,2.7
	v25c0,2.4,1.1,3.6,3.4,3.6v0.4h-10.1v-0.4c1.1,0,1.9-0.3,2.5-0.9c0.6-0.6,0.9-1.5,0.9-2.7v-13h-18.2v12.9c0,1.2,0.3,2,0.9,2.7
	c0.6,0.6,1.5,1,2.5,1v0.4h-10.1v-0.4c1.1,0,1.9-0.3,2.5-1c0.6-0.6,0.9-1.5,0.9-2.7v-25c0-2.5-1.1-3.7-3.4-3.7v-0.4H513v0.4
	c-1.2,0-2.1,0.3-2.6,1c-0.6,0.7-0.8,1.6-0.8,2.7v11.1H527.7z"/>
<path d="M542,169.8v-0.4h18.9v5.2h-0.3c0-2.8-1.8-4.2-5.3-4.2h-6.6v15h5.8c1.1,0,2.2-0.2,3.1-0.6c0.9-0.4,1.4-1.3,1.6-2.7h0.3v7.5
	h-0.3c-0.1-0.9-0.4-1.5-0.7-2c-0.4-0.5-0.7-0.8-1.1-0.9c-0.4-0.1-0.7-0.2-0.9-0.2c-0.5-0.1-1.1-0.1-1.6-0.1h-6.1v11.7
	c0,0.9,0.2,1.6,0.5,2.3c0.3,0.6,1.1,1,2.2,1h4.7c1.1,0,2.1-0.2,2.8-0.5s1.3-0.8,1.7-1.4c0.4-0.6,0.8-1.4,1.1-2.2h0.3l-1.1,5.2H542
	v-0.4h0.4c0.7,0,1.3-0.3,2-0.9c0.6-0.6,1-1.5,1-2.8v-24.9c0-1-0.2-1.9-0.7-2.6c-0.4-0.7-1.2-1.1-2.3-1.1H542z"/>
<path d="M603.9,175.8h-0.3c-0.2-1.6-0.9-3-2-4.2c-1.1-1.2-2.6-1.8-4.5-1.8c-1.2,0-2.3,0.3-3.3,0.9s-1.7,1.4-2.2,2.4
	c-0.5,1-0.8,2.2-0.8,3.5c0,1,0.2,1.9,0.5,2.7s0.8,1.5,1.4,2.1c0.6,0.6,1.3,1.2,2.1,1.7c0.8,0.5,1.9,1.2,3.3,2c2.3,1.3,4.1,2.7,5.4,4
	c1.3,1.3,1.9,3.1,1.9,5.4c0,1.4-0.3,2.8-1,4.1c-0.7,1.3-1.7,2.4-3.2,3.2c-1.4,0.8-3.2,1.3-5.2,1.3c-1.3,0-2.5-0.1-3.5-0.4
	c-1-0.3-2-0.7-3.1-1.2c-0.4-0.1-0.7-0.2-0.9-0.2c-0.3,0-0.5,0.1-0.6,0.3c-0.1,0.2-0.2,0.7-0.4,1.5h-0.4v-8.3h0.4
	c0.5,2.4,1.5,4.3,3,5.5c1.5,1.2,3.3,1.9,5.4,1.9c1.6,0,2.9-0.3,3.9-0.9c1-0.6,1.6-1.4,2-2.3s0.6-1.8,0.6-2.7c0-1.9-0.5-3.4-1.6-4.5
	c-1.1-1.2-2.7-2.4-4.9-3.6c-1.5-0.9-2.6-1.5-3.4-2c-0.7-0.5-1.5-1.1-2.2-1.9c-0.8-0.8-1.4-1.7-1.8-2.7s-0.7-2.2-0.7-3.6
	c0-1.6,0.4-3,1.2-4.5c0.8-1.4,1.9-2.6,3.4-3.4c1.4-0.9,3.1-1.3,4.9-1.3c1.4,0,2.8,0.2,4.3,0.7c0.2,0.1,0.5,0.2,0.9,0.2
	c0.5,0,0.8-0.3,1-1h0.3V175.8z"/>
<path d="M614,169.8v-0.4h10.4c1.7,0,3.3,0.2,4.6,0.7c1.3,0.5,2.4,1.2,3.3,2c0.9,0.9,1.5,1.8,2,2.9c0.4,1.1,0.7,2.2,0.7,3.4
	c0,1.2-0.2,2.3-0.6,3.3c-0.4,1.1-1.1,2-1.9,2.8c-0.9,0.8-2,1.5-3.4,2c-1.4,0.5-3.1,0.7-4.9,0.7c-0.6,0-1.7-0.1-3.4-0.3v11.4
	c0,2.3,1.1,3.6,3.4,3.6v0.4H614v-0.4c1,0,1.8-0.3,2.4-0.9c0.6-0.6,1-1.5,1-2.7v-25c0-0.8-0.1-1.4-0.3-1.9c-0.2-0.5-0.5-0.9-0.8-1.1
	c-0.3-0.2-0.7-0.4-1-0.5c-0.4-0.1-0.6-0.2-0.8-0.2H614z M620.7,170.6v15.6c1.1,0.2,2.2,0.3,3.3,0.3c2.1,0,3.8-0.6,5.2-1.6
	c1.4-1.1,2.1-3.1,2.1-6.1c0-2.5-0.6-4.5-1.9-6c-1.3-1.6-3.2-2.4-5.7-2.4C622.7,170.3,621.7,170.4,620.7,170.6z"/>
<path d="M641.9,169.9h-0.4v-0.5h11c1.8,0,3.3,0.3,4.5,0.9c1.2,0.6,2.2,1.3,2.9,2.2c0.7,0.9,1.2,1.8,1.5,2.8c0.3,1,0.4,1.9,0.4,2.9
	c0,1.2-0.2,2.3-0.7,3.4c-0.5,1.1-1.2,2-2.2,2.8c-1,0.8-2.2,1.3-3.7,1.6v0.1c1.9,1,3.6,2.9,5.3,5.7l2.9,5c1.3,2.3,2.3,3.7,3.1,4.3
	c0.8,0.6,1.6,0.9,2.3,1v0.4h-5.8c-0.2-0.3-0.5-0.6-0.7-1c-0.2-0.3-0.4-0.6-0.7-1c-0.1-0.2-0.4-0.6-0.6-1c-0.3-0.5-0.4-0.7-0.5-0.8
	l-3.8-6.5c-0.8-1.3-1.5-2.4-2.3-3.2c-0.8-0.8-1.5-1.4-2.2-1.8c-0.7-0.4-1.3-0.6-1.9-0.7c-0.6-0.1-1.2-0.1-1.9-0.1v12.1
	c0,2.3,1.1,3.6,3.4,3.6v0.4h-10.1v-0.4c0.6,0,1.2-0.2,1.7-0.4c0.5-0.2,0.9-0.6,1.2-1.1c0.3-0.5,0.5-1.2,0.5-2.1v-25
	c0-1.3-0.3-2.2-0.9-2.8C643.3,170.2,642.6,169.9,641.9,169.9z M648.1,185.5h1.8c1.9,0,3.4-0.3,4.7-0.9c1.2-0.6,2.1-1.4,2.6-2.4
	c0.5-1.1,0.8-2.3,0.8-3.9c0-1.3-0.2-2.5-0.7-3.7c-0.5-1.2-1.3-2.2-2.5-3.1c-1.2-0.8-2.7-1.2-4.7-1.2c-0.8,0-1.5,0.1-2,0.2V185.5z"/>
<path d="M689.4,169l10.3,28.3c0.5,1.5,1.1,2.5,1.5,3.2c0.5,0.7,0.9,1.1,1.4,1.2c0.4,0.2,1,0.3,1.7,0.3v0.4h-11.2v-0.4
	c1.1,0,2-0.1,2.7-0.3s0.9-0.8,0.9-1.7c0-0.5-0.1-1.2-0.4-2c-0.1-0.1-0.1-0.2-0.1-0.3l-3-8.8h-11.9l-2.7,8.1c-0.4,1.1-0.6,2-0.6,2.7
	c0,0.9,0.2,1.5,0.7,1.9c0.5,0.3,1.2,0.5,2,0.5v0.4h-8.1v-0.4c1.1-0.1,2.1-0.5,2.8-1.3c0.7-0.7,1.3-1.9,1.8-3.4l9.7-28.4H689.4z
	 M681.6,187.8h10.9l-5.6-15.7h-0.1L681.6,187.8z"/>
<path d="M734,176.8h-0.4c-0.3-1.6-1-3-2.2-4.1c-1.2-1.1-2.5-1.9-4.1-2.5c-1.5-0.5-3-0.8-4.3-0.8c-1.8,0-3.5,0.4-5.1,1.2
	c-1.6,0.8-3,1.9-4.1,3.4c-1.2,1.5-2.1,3.2-2.7,5.2c-0.6,2-1,4.3-1,6.7c0,2.3,0.3,4.5,0.9,6.4c0.6,2,1.5,3.7,2.7,5.2
	c1.2,1.5,2.6,2.6,4.2,3.3c1.6,0.7,3.3,1.1,5.3,1.1c1.6,0,3.4-0.3,5.3-1c1.9-0.7,3.7-1.8,5.2-3.4v1.3c-1.9,1.5-3.7,2.7-5.2,3.4
	c-1.6,0.7-3.6,1.1-5.9,1.1c-2.5,0-4.8-0.5-6.8-1.4c-2.1-0.9-3.8-2.2-5.2-3.8s-2.5-3.4-3.2-5.5c-0.7-2-1.1-4.1-1.1-6.2
	c0-3.2,0.8-6.2,2.3-9c1.5-2.8,3.6-4.9,6.2-6.5s5.4-2.4,8.5-2.4c1.9,0,3.9,0.3,6,0.9l2.2,0.7c0.4,0.1,0.8,0.1,1.1,0.1
	c0.6,0,0.9-0.1,1.1-0.3c0.2-0.2,0.3-0.5,0.4-0.9h0.3L734,176.8z"/>
<path d="M765.1,184.5v-11.1c0-1.1-0.3-2-0.8-2.6c-0.6-0.7-1.4-1-2.6-1v-0.4h10.1v0.4c-1.2,0-2,0.3-2.6,1s-0.8,1.6-0.8,2.7v25
	c0,2.4,1.1,3.6,3.4,3.6v0.4h-10.1v-0.4c1.1,0,1.9-0.3,2.5-0.9c0.6-0.6,0.9-1.5,0.9-2.7v-13h-18.2v12.9c0,1.2,0.3,2,0.9,2.7
	c0.6,0.6,1.5,1,2.5,1v0.4h-10.1v-0.4c1.1,0,1.9-0.3,2.5-1c0.6-0.6,0.9-1.5,0.9-2.7v-25c0-2.5-1.1-3.7-3.4-3.7v-0.4h10.1v0.4
	c-1.2,0-2.1,0.3-2.6,1c-0.6,0.7-0.8,1.6-0.8,2.7v11.1H765.1z"/>
<path d="M778,169.8v-0.4h18.9v5.2h-0.3c0-2.8-1.8-4.2-5.3-4.2h-6.6v15h5.8c1.1,0,2.2-0.2,3.1-0.6c0.9-0.4,1.4-1.3,1.6-2.7h0.3v7.5
	h-0.3c-0.1-0.9-0.4-1.5-0.7-2c-0.4-0.5-0.7-0.8-1.1-0.9c-0.4-0.1-0.7-0.2-0.9-0.2c-0.5-0.1-1.1-0.1-1.6-0.1h-6.1v11.7
	c0,0.9,0.2,1.6,0.5,2.3c0.3,0.6,1.1,1,2.2,1h4.7c1.1,0,2.1-0.2,2.8-0.5s1.3-0.8,1.7-1.4c0.4-0.6,0.8-1.4,1.1-2.2h0.3l-1.1,5.2H778
	v-0.4h0.4c0.7,0,1.3-0.3,2-0.9c0.6-0.6,1-1.5,1-2.8v-24.9c0-1-0.2-1.9-0.7-2.6c-0.4-0.7-1.2-1.1-2.3-1.1H778z"/>
</svg>
